<?xml version="1.0" encoding="UTF-8" standalone="yes"?>
<svg version="1.2" width="500.000000pt" height="500.000000pt" viewBox="0 0 500.000000 500.000000" preserveAspectRatio="xMidYMid meet" baseProfile="tiny-ps" xmlns="http://www.w3.org/2000/svg">
  <title>bimi-svg-tiny-12-ps</title>
  <g transform="translate(0.000000,500.000000) scale(0.100000,-0.100000)" fill="#000000" stroke="none">
    <path d="M0 2500 l0 -2500 2500 0 2500 0 0 2500 0 2500 -2500 0 -2500 0 0&#xA;-2500z m2555 212 c11 -10 31 -30 43 -44 l24 -26 -31 -91 c-34 -99 -39 -141&#xA;-17 -141 20 0 42 38 66 114 12 36 26 66 31 66 6 0 33 -17 62 -38 29 -21 73&#xA;-51 99 -66 38 -22 50 -36 59 -67 15 -47 42 -55 33 -9 -8 35 4 38 61 14 20 -8&#xA;62 -19 93 -25 32 -5 90 -19 130 -31 l72 -21 0 -37 c0 -46 -29 -201 -40 -215&#xA;-4 -5 -12 -26 -19 -45 -10 -32 -23 -59 -85 -171 -39 -72 -147 -186 -250 -263&#xA;-43 -32 -166 -97 -241 -127 -77 -30 -234 -59 -325 -59 -192 0 -424 77 -580&#xA;193 -65 48 -220 205 -220 224 0 3 -11 20 -23 37 -28 36 -87 155 -87 174 0 7&#xA;-7 24 -16 38 -9 13 -14 27 -11 30 3 3 61 9 130 14 171 11 183 20 189 135 3 43&#xA;7 52 35 71 18 12 53 25 79 29 108 16 310 92 399 151 l25 16 0 -40 c0 -23 5&#xA;-44 10 -47 6 -3 10 -17 10 -31 0 -13 5 -24 11 -24 7 0 9 30 8 85 -3 83 -2 84&#xA;27 107 16 13 40 34 54 48 14 14 43 40 65 57 46 38 98 43 130 15z m1277 -699&#xA;c-6 -15 -13 -41 -17 -57 -5 -25 -9 -27 -33 -21 -67 16 -170 34 -203 35 -19 0&#xA;-43 6 -52 13 -15 11 -14 18 10 82 21 59 50 138 68 192 2 7 57 -39 121 -102&#xA;112 -110 116 -115 106 -142z m-292 -123 c0 -6 38 -59 85 -119 47 -61 85 -113&#xA;85 -117 0 -4 -12 -31 -27 -61 -31 -61 -39 -63 -125 -25 -24 11 -76 32 -115 47&#xA;-40 16 -73 30 -73 32 0 2 9 13 20 25 11 12 20 28 20 35 0 7 4 13 9 13 9 0 101&#xA;156 101 171 0 5 5 9 10 9 6 0 10 -5 10 -10z"/>
    <path d="M1810 2143 c0 -106 27 -366 41 -398 7 -14 8 -6 4 25 -3 25 -9 67 -12&#xA;94 l-6 49 99 -6 c110 -6 156 -23 220 -81 28 -26 33 -35 23 -42 -61 -39 -271&#xA;-144 -288 -144 -6 0 -14 19 -20 43 l-11 42 4 -43 c3 -24 7 -46 10 -50 10 -9&#xA;104 28 177 70 36 21 69 38 73 38 4 0 30 15 59 33 29 18 68 41 87 50 72 36 171&#xA;107 164 118 -8 14 -24 10 -24 -6 0 -8 -10 -20 -22 -26 -13 -7 -28 -19 -35 -28&#xA;-10 -14 -13 -14 -30 1 -10 9 -44 25 -76 34 -31 10 -57 21 -57 25 0 4 -17 13&#xA;-37 19 -21 7 -45 18 -53 25 -8 6 -31 18 -50 25 -19 8 -39 18 -45 22 -5 5 -31&#xA;22 -57 39 -53 34 -83 71 -94 113 l-7 28 42 -21 c22 -12 41 -19 41 -17 0 5&#xA;-105 66 -114 66 -3 0 -6 -43 -6 -97z"/>
    <path d="M1940 2166 c0 -6 126 -76 136 -76 5 0 -22 18 -60 40 -68 40 -76 44&#xA;-76 36z"/>
    <path d="M2100 2075 c7 -8 18 -15 24 -15 7 0 29 -9 51 -20 46 -23 45 -23 45&#xA;-10 0 6 -5 10 -11 10 -6 0 -33 11 -61 25 -58 29 -65 31 -48 10z"/>
    <path d="M2305 1986 c28 -14 55 -25 60 -25 14 0 -55 35 -85 43 -14 3 -2 -5 25&#xA;-18z"/>
  </g>
</svg>